<?xml version="1.0" encoding="utf-8"?>
<!-- Generator: Adobe Illustrator 23.0.1, SVG Export Plug-In . SVG Version: 6.00 Build 0)  -->
<svg version="1.1" id="Layer_1" xmlns="http://www.w3.org/2000/svg" xmlns:xlink="http://www.w3.org/1999/xlink" x="0px" y="0px"
	 viewBox="0 0 250 150" style="enable-background:new 0 0 250 150;" xml:space="preserve">
<style type="text/css">
	.st0{fill:#2092C0;}
	.st1{fill:#F2B262;}
	.st2{fill:#6ECBD6;}
	.st3{fill:#FAFAFA;}
	.st4{fill:none;stroke:#FFFFFF;stroke-width:1.075;stroke-miterlimit:10;}
</style>
<path class="st0" d="M47,30.7c-5.5,0-10.8,1.3-15.6,3.6c0.3-1.7,0.7-3.2,1.4-4.7c2.4-4.7,7.3-7.7,12.6-7.1c4.6,0.5,8.4,3.6,10.3,7.8
	c0.2,0.5,0.4,1.1,0.6,1.6C53.3,31.1,50.2,30.7,47,30.7"/>
<path class="st0" d="M57,37.9c-0.3,2.5-1.1,4.8-2.4,6.7c-1.4,2.2-3.4,3.9-5.7,4.9c-1.9,0.8-4,1.2-6.1,1c-2-0.2-3.9-1-5.5-2
	c-3.6-2.5-6-6.8-6.1-11.5c4.8-2.5,10.1-3.9,15.7-3.9c3.4,0,6.8,0.5,9.9,1.5C57.1,35.5,57.1,36.7,57,37.9"/>
<path class="st0" d="M73.9,42.8c-2.4-2.6-5.2-4.9-8.2-6.7v0c0.2-1.1,0.3-2.2,0.4-3.4c0.2-1.9,0.3-3.9,0.4-5.9c0.1-2.4,1-6.2-0.2-8.4
	c3.2,5.5,5.3,11.4,6.6,17.5C73.4,38.1,73.7,40.4,73.9,42.8"/>
<path class="st0" d="M47,113.8c0.8,0,1.6,0,2.4-0.1c0,0,0,0.1-0.1,0.1c-0.2,0.2-0.4,0.4-0.6,0.7c-2,2.5-4.1,4.9-6.3,7.3
	c-0.9,1-1.8,2-2.7,3c-0.6,0.6-1.2,1.2-1.9,1.8c-1.2,1.1-2.9,2.1-3.5,3.7c0.9-2.2,1.7-4.4,2.4-6.6c1.2-3.6,2.3-7.1,3.1-10.6
	C42.2,113.6,44.5,113.8,47,113.8"/>
<path class="st0" d="M74.1,54.5c0,0.3,0,0.6-0.1,0.9c0,0.2,0,0.5-0.1,0.7c-0.5,6.2-1.7,12.4-3.5,18.4c-0.1,0.2-0.1,0.5-0.2,0.7
	c-0.1,0.4-0.2,0.7-0.4,1.1v0c-0.7,2-1.4,4.1-2.1,6.1c-0.1,0.2-0.2,0.4-0.3,0.7c-0.7,1.6-1.4,3.3-2.1,4.8c-1,2.2-2.2,4.5-3.3,6.6
	c0,0,0,0,0,0c-3.2,5.9-6.8,11.4-10.8,16.7c0,0,0,0,0,0c-1.4,0.2-2.8,0.3-4.2,0.3c-2.3,0-4.5-0.2-6.6-0.7c0.1-0.3,0.2-0.6,0.2-1
	c0.9-4.5,1.5-8.8,1.7-13.1c0-0.4,0-0.8,0-1.2V95c0.1-5.3-0.5-10.5-1.8-15.4c-0.1-0.2-0.1-0.4-0.2-0.6c-0.1-0.2-0.2-0.4-0.3-0.7
	c-0.1-0.2-0.2-0.4-0.3-0.7c-1.1-3-2.4-5.9-3.8-8.7c-2.3-4.4-4.9-8.5-8.2-12.2v0c-2-2.2-4.1-4.3-6.5-6.3c2.2,1.8,5.7,2.8,8.6,3.8
	c0.6,0.2,1.3,0.4,1.8,0.6c6.5,2.4,13.9,3.5,20.6,1.1c1.4-0.5,2.8-1.2,4-2.1c0.3-0.2,0.5-0.3,0.7-0.5c0.3-0.2,0.5-0.4,0.8-0.6
	c0.2-0.2,0.4-0.4,0.6-0.5c1.7-1.6,3.1-3.6,4.3-5.8c1.1-2.2,2-4.6,2.6-7.1c0.1-0.3,0.1-0.7,0.2-1c3.3,2.1,6.3,4.8,8.8,7.9
	C74.3,49,74.3,51.8,74.1,54.5"/>
<path class="st1" d="M8.7,72.3c0,5.1,0.8,9.9,2.4,14.4c-1,0.2-2,0.2-2.9,0c-2.5-0.6-4.7-2.6-5.4-5.6c-0.3-1-0.3-2-0.1-3.1
	c0.4-2.9,2.4-5.3,5.2-6.1h0c0.3-0.1,0.6-0.1,0.8-0.2V72.3z"/>
<path class="st1" d="M13,85.9c-1.4-4.2-2.2-8.9-2.2-13.6v-0.4c2.6,0.5,4.9,2.6,5.5,5.6c0.1,0.3,0.1,0.6,0.2,0.9
	C16.8,81.4,15.4,84.4,13,85.9"/>
<path class="st1" d="M27.9,108.3c-0.6,2.6-1.3,5.1-2,7.6c-0.1,0.4-0.3,0.8-0.4,1.2c-0.7,2-1.4,3.9-2.3,5.9c-0.5,1.1-1,2.3-1.5,3.3
	c-0.2,0.4-0.5,0.8-0.8,1.3c-0.2,0.4-0.4,0.8-0.4,1.3c0-0.5,0.1-1,0.1-1.5c0.2-6.1-0.2-11.7-1.5-16.6c-0.9-3.3-2.2-6.2-4-8.8
	c-0.7-0.9-1.4-1.7-2.2-2.5c-0.5-0.6-1.1-1.2-1.7-1.7c-3.1-3-6.6-5.3-10.9-6.7c1.8,0.6,4.2,0.2,6,0.1c0.9,0,1.7-0.1,2.6-0.2
	c1.1-0.2,2.3-0.4,3.4-0.8C15.8,97.8,21.2,104.1,27.9,108.3"/>
<path class="st1" d="M29,101.2c0,0.1,0,0.1,0,0.2c-0.2,1.5-0.4,3.1-0.7,4.6c-6-4-10.9-9.8-14-16.6c0.9-0.4,1.8-1,2.7-1.7
	c2.3-1.9,3.4-4.8,3.7-7.7c0-0.1,0-0.3,0-0.4c0.1-1,0.1-2,0-2.9c0,0,0,0,0,0c-0.2-2.3-0.8-4.4-1.4-6.6c-0.3-1.2-0.5-3.1-1.3-4
	c1.4,1.2,2.6,2.5,3.7,3.9c3,3.8,5,8.2,6.2,12.9c0,0.2,0.1,0.3,0.1,0.4C29.5,89,29.7,95.2,29,101.2"/>
<path class="st2" d="M99.9,94.6c-1.8,2.4-4.6,3.3-7.1,2.5c-0.9-0.2-1.9-0.7-2.7-1.5c-3-2.6-3.4-7.4-1-10.6c0-0.1,0.1-0.1,0.1-0.2
	c1.7-2.2,4.4-3.1,6.9-2.4c1,0.2,1.9,0.7,2.7,1.5c0.6,0.5,1.1,1.1,1.4,1.7h0C102,88.4,101.9,92,99.9,94.6"/>
<path class="st2" d="M67.2,104.9c0.3-1.4,0.7-2.8,1.1-4.2c1.4-4.4,3.2-8.7,5.7-12.6c1.6-2.5,3.4-4.8,5.5-6.9c1-1,2.1-2,3.3-2.8
	C81.2,89.4,75.4,98.9,67.2,104.9"/>
<path class="st2" d="M98.3,104.7c-3.2-0.5-6.3-0.4-9.3,0.3c-1.2,0.2-2.3,0.5-3.5,0.9v0c-1.6,0.5-3.2,1.2-4.8,1.9
	c-5.4,3.1-9.5,8.6-12.8,15.5c-1,2-1.9,4.2-2.7,6.4c0.3-0.9,0-2,0-2.9c-0.1-0.8-0.1-1.6-0.1-2.4v-1.3c0-2.6,0.1-5.1,0.3-7.6
	c0.2-2.4,0.5-4.8,1-7.1c0-0.1,0-0.3,0.1-0.4c10-6.5,17.1-17.9,18.5-31.1c2.2-1.4,4.6-2.4,7.1-3.1c-1.1,0.5-2,2.1-2.8,3.1
	c-1.4,1.7-2.8,3.4-3.9,5.4c-0.3,0.4-0.5,0.9-0.7,1.4c-1.4,3.3-1.8,7-0.3,10.3c1.4,3,3.8,5.4,6.6,7.1c0.6,0.4,1.1,0.7,1.7,1
	C94.4,102.9,96.5,104.4,98.3,104.7"/>
<polygon class="st3" points="126.8,54.9 120.8,43 124,43 128.6,52.5 127.8,52.5 132.3,43 135.5,43 129.4,54.9 129.4,60.6 
	126.8,60.6 "/>
<path class="st3" d="M135.8,51.8c0-1.2,0.2-2.4,0.6-3.4c0.4-1.1,1-2.1,1.8-2.9c0.8-0.8,1.6-1.5,2.6-2c1-0.5,2.1-0.7,3.2-0.7
	c1.1,0,2.2,0.2,3.2,0.7c1,0.5,1.9,1.1,2.7,2c0.8,0.8,1.4,1.8,1.8,2.9c0.4,1.1,0.6,2.2,0.6,3.4c0,1.2-0.2,2.4-0.6,3.5
	c-0.4,1.1-1,2-1.8,2.9c-0.8,0.8-1.7,1.5-2.7,1.9c-1,0.5-2.1,0.7-3.2,0.7c-1.1,0-2.2-0.2-3.2-0.7c-1-0.5-1.9-1.1-2.6-1.9
	c-0.8-0.8-1.4-1.8-1.8-2.9C136,54.3,135.8,53.1,135.8,51.8 M138.5,51.8c0,0.9,0.1,1.7,0.4,2.5c0.3,0.8,0.7,1.4,1.2,2
	c0.5,0.6,1.1,1,1.8,1.3c0.7,0.3,1.4,0.5,2.2,0.5c0.8,0,1.5-0.2,2.2-0.5c0.7-0.3,1.3-0.8,1.8-1.3c0.5-0.6,0.9-1.2,1.2-2
	s0.4-1.6,0.4-2.4c0-0.9-0.1-1.7-0.4-2.5c-0.3-0.8-0.7-1.4-1.2-2c-0.5-0.6-1.1-1-1.8-1.4c-0.7-0.3-1.4-0.5-2.2-0.5s-1.5,0.2-2.2,0.5
	c-0.7,0.3-1.3,0.8-1.8,1.4c-0.5,0.6-0.9,1.2-1.2,2C138.6,50.1,138.5,50.9,138.5,51.8"/>
<path class="st3" d="M158.2,54.3c0,0.7,0.2,1.3,0.5,1.9c0.3,0.6,0.8,1,1.3,1.4s1.2,0.5,1.8,0.5c0.7,0,1.4-0.2,1.9-0.5
	c0.6-0.4,1-0.8,1.3-1.4c0.3-0.6,0.5-1.2,0.5-1.9V43h2.5v11.3c0,1.3-0.3,2.4-0.8,3.4c-0.6,1-1.3,1.7-2.3,2.3c-1,0.5-2,0.8-3.2,0.8
	c-1.2,0-2.2-0.3-3.2-0.8c-0.9-0.5-1.7-1.3-2.3-2.3c-0.6-1-0.8-2.1-0.8-3.4V43h2.6V54.3z"/>
<polygon class="st3" points="171.2,43 182,43 182,45.7 177.8,45.7 177.8,60.6 175.3,60.6 175.3,45.7 171.2,45.7 "/>
<polygon class="st3" points="198.5,43 198.5,60.6 195.9,60.6 195.9,53.1 187.9,53.1 187.9,60.6 185.3,60.6 185.3,43 187.9,43 
	187.9,50.4 195.9,50.4 195.9,43 "/>
<rect x="210.1" y="43" class="st3" width="2.6" height="17.6"/>
<polygon class="st3" points="231.4,61.2 219,48.1 219.7,48.5 219.8,60.6 217.2,60.6 217.2,42.4 217.3,42.4 229.5,55.5 228.9,55.3 
	228.9,43 231.5,43 231.5,61.2 "/>
<polygon class="st3" points="122.5,68 132.4,68 132.4,70.7 125.2,70.7 125.2,75.7 131.5,75.7 131.5,78.4 125.2,78.4 125.2,85.6 
	122.5,85.6 "/>
<polygon class="st3" points="135.7,68 146.5,68 146.5,70.7 138.4,70.7 138.4,75.4 145.6,75.4 145.6,78.1 138.4,78.1 138.4,82.9 
	146.8,82.9 146.8,85.6 135.7,85.6 "/>
<path class="st3" d="M150.4,85.6V68h4.6c1.6,0,3,0.3,4.1,0.8c1.1,0.5,2.1,1.2,2.7,2.1c0.7,0.9,1.2,1.8,1.5,2.9
	c0.3,1.1,0.5,2.1,0.5,3.2c0,1.3-0.2,2.5-0.6,3.6c-0.4,1.1-1,1.9-1.8,2.7c-0.7,0.8-1.6,1.3-2.6,1.7s-2,0.6-3.1,0.6L150.4,85.6
	L150.4,85.6z M153,82.9h2.3c0.9,0,1.7-0.1,2.4-0.4c0.7-0.3,1.3-0.7,1.9-1.2c0.5-0.5,0.9-1.1,1.2-1.9c0.3-0.7,0.4-1.6,0.4-2.6
	c0-1.1-0.2-2-0.5-2.8c-0.3-0.8-0.8-1.4-1.3-1.9c-0.5-0.5-1.1-0.9-1.8-1.1c-0.6-0.2-1.3-0.3-1.9-0.3H153L153,82.9L153,82.9z"/>
<polygon class="st3" points="167.4,68 178.1,68 178.1,70.7 170,70.7 170,75.4 177.2,75.4 177.2,78.1 170,78.1 170,82.9 178.4,82.9 
	178.4,85.6 167.4,85.6 "/>
<path class="st3" d="M186.6,68c0.9,0,1.7,0.1,2.4,0.4c0.7,0.3,1.4,0.6,1.9,1.1c0.5,0.5,0.9,1.1,1.2,1.8c0.3,0.7,0.4,1.5,0.4,2.4
	c0,0.7-0.1,1.4-0.3,2.1s-0.5,1.3-0.9,1.9c-0.4,0.6-1,1-1.7,1.4c-0.7,0.3-1.6,0.5-2.6,0.5h-2.4v6.1H182V68H186.6z M186.9,76.8
	c0.6,0,1-0.1,1.4-0.3c0.4-0.2,0.7-0.4,0.9-0.8c0.2-0.3,0.4-0.6,0.5-1c0.1-0.4,0.1-0.7,0.1-1c0-0.3,0-0.6-0.1-1
	c-0.1-0.4-0.2-0.7-0.5-1c-0.2-0.3-0.5-0.6-0.9-0.8c-0.4-0.2-0.8-0.3-1.4-0.3h-2.4v6.1L186.9,76.8L186.9,76.8z M189.8,78.5l4.1,7.1
	h-3l-4.2-7.1L189.8,78.5z"/>
<path class="st3" d="M195.2,85.6l7.2-18.3h0.2l7.2,18.3h-3l-5.1-13.9l1.9-1.3l-5.8,15.3C197.8,85.6,195.2,85.6,195.2,85.6z
	 M199.8,79.1h5.5l0.9,2.4H199L199.8,79.1z"/>
<polygon class="st3" points="212.5,68 215.1,68 215.1,82.9 223.1,82.9 223.1,85.6 212.5,85.6 "/>
<path class="st3" d="M122.5,110.6V93h4.6c1.6,0,3,0.3,4.1,0.8c1.1,0.5,2.1,1.2,2.7,2.1c0.7,0.9,1.2,1.8,1.5,2.9s0.5,2.1,0.5,3.2
	c0,1.3-0.2,2.5-0.6,3.6c-0.4,1.1-1,1.9-1.8,2.7c-0.7,0.7-1.6,1.3-2.6,1.7s-2,0.6-3.1,0.6L122.5,110.6L122.5,110.6z M125.2,107.9h2.3
	c0.9,0,1.7-0.1,2.4-0.4c0.7-0.3,1.3-0.7,1.9-1.2c0.5-0.5,0.9-1.1,1.2-1.9c0.3-0.7,0.4-1.6,0.4-2.6c0-1.1-0.2-2-0.5-2.8
	c-0.3-0.8-0.8-1.4-1.3-1.9c-0.5-0.5-1.1-0.9-1.8-1.1c-0.6-0.2-1.3-0.3-1.9-0.3h-2.7L125.2,107.9L125.2,107.9z"/>
<rect x="139.5" y="93" class="st3" width="2.6" height="17.6"/>
<path class="st3" d="M155.1,96.6c-0.6-0.3-1.2-0.6-1.8-0.9c-0.7-0.2-1.3-0.4-1.9-0.4c-0.8,0-1.4,0.2-1.9,0.6
	c-0.5,0.4-0.7,0.9-0.7,1.6c0,0.5,0.2,0.9,0.5,1.3s0.7,0.7,1.2,0.9c0.5,0.3,1,0.5,1.6,0.8c0.5,0.2,1,0.4,1.4,0.7
	c0.5,0.3,0.9,0.6,1.3,1c0.4,0.4,0.7,0.9,0.9,1.5c0.2,0.6,0.3,1.3,0.3,2.1c0,0.9-0.2,1.8-0.6,2.5c-0.4,0.8-1,1.4-1.9,1.8
	c-0.8,0.5-1.8,0.7-2.9,0.7c-0.7,0-1.3-0.1-2-0.2c-0.6-0.2-1.3-0.4-1.8-0.7c-0.6-0.3-1.1-0.6-1.6-1l1.2-2.2c0.4,0.3,0.8,0.6,1.2,0.8
	c0.5,0.2,0.9,0.4,1.4,0.6c0.5,0.1,0.9,0.2,1.4,0.2c0.4,0,0.9-0.1,1.4-0.3c0.5-0.2,0.9-0.4,1.1-0.8c0.3-0.4,0.4-0.9,0.4-1.5
	c0-0.5-0.1-0.9-0.4-1.3c-0.3-0.4-0.6-0.7-1-0.9c-0.4-0.3-0.9-0.5-1.4-0.7c-0.5-0.2-1-0.4-1.5-0.7c-0.5-0.3-1-0.6-1.5-1
	c-0.4-0.4-0.8-0.8-1.1-1.4s-0.4-1.2-0.4-2c0-1,0.2-1.8,0.6-2.5c0.4-0.7,1-1.3,1.7-1.7s1.6-0.6,2.6-0.7c1.1,0,2.1,0.2,2.9,0.4
	c0.8,0.3,1.5,0.7,2.2,1.1L155.1,96.6z"/>
<path class="st3" d="M171.6,109.2c-0.2,0.2-0.6,0.4-1,0.7c-0.5,0.3-1,0.5-1.7,0.7s-1.4,0.3-2.1,0.3c-1.3,0-2.4-0.3-3.4-0.7
	c-1-0.5-1.9-1.1-2.6-1.9c-0.7-0.8-1.3-1.8-1.6-2.8c-0.4-1.1-0.6-2.2-0.6-3.4c0-1.3,0.2-2.5,0.6-3.6c0.4-1.1,0.9-2.1,1.6-2.9
	c0.7-0.8,1.6-1.4,2.5-1.9c1-0.4,2.1-0.7,3.2-0.7c1,0,1.9,0.2,2.7,0.4c0.8,0.3,1.5,0.6,2,1l-1,2.6c-0.4-0.3-0.9-0.7-1.6-1
	c-0.6-0.3-1.3-0.4-2.1-0.4c-0.7,0-1.4,0.2-2,0.5c-0.6,0.3-1.2,0.8-1.7,1.3c-0.5,0.6-0.9,1.2-1.2,2c-0.3,0.8-0.4,1.6-0.4,2.5
	c0,0.9,0.1,1.8,0.4,2.5c0.3,0.8,0.6,1.5,1.1,2c0.5,0.6,1.1,1,1.7,1.3c0.7,0.3,1.4,0.5,2.3,0.5s1.6-0.1,2.2-0.4
	c0.6-0.3,1.1-0.6,1.5-1L171.6,109.2z"/>
<path class="st3" d="M174,101.8c0-1.2,0.2-2.4,0.6-3.4c0.4-1.1,1-2.1,1.8-2.9c0.8-0.8,1.6-1.5,2.6-2s2.1-0.7,3.2-0.7
	c1.1,0,2.2,0.2,3.2,0.7c1,0.5,1.9,1.1,2.7,2c0.8,0.8,1.4,1.8,1.8,2.9c0.4,1.1,0.6,2.2,0.6,3.4c0,1.2-0.2,2.4-0.6,3.5
	c-0.4,1.1-1,2-1.8,2.9c-0.8,0.8-1.7,1.5-2.7,1.9c-1,0.5-2.1,0.7-3.2,0.7c-1.1,0-2.2-0.2-3.2-0.7c-1-0.5-1.9-1.1-2.6-1.9
	c-0.8-0.8-1.4-1.8-1.8-2.9C174.2,104.3,174,103.1,174,101.8 M176.7,101.8c0,0.9,0.1,1.7,0.4,2.5s0.7,1.4,1.2,2
	c0.5,0.6,1.1,1,1.8,1.3c0.7,0.3,1.4,0.5,2.2,0.5s1.5-0.2,2.2-0.5c0.7-0.3,1.3-0.8,1.8-1.3c0.5-0.6,0.9-1.2,1.2-2s0.4-1.6,0.4-2.4
	c0-0.9-0.1-1.7-0.4-2.5c-0.3-0.8-0.7-1.4-1.2-2c-0.5-0.6-1.1-1-1.8-1.4c-0.7-0.3-1.4-0.5-2.2-0.5c-0.8,0-1.5,0.2-2.2,0.5
	c-0.7,0.3-1.3,0.8-1.8,1.4c-0.5,0.6-0.9,1.2-1.2,2C176.8,100.1,176.7,100.9,176.7,101.8"/>
<path class="st3" d="M196.4,104.3c0,0.7,0.2,1.3,0.5,1.9c0.3,0.6,0.8,1,1.3,1.4s1.2,0.5,1.8,0.5c0.7,0,1.4-0.2,1.9-0.5
	c0.6-0.4,1-0.8,1.3-1.4c0.3-0.6,0.5-1.2,0.5-1.9V93h2.5v11.3c0,1.3-0.3,2.4-0.8,3.4c-0.6,1-1.3,1.7-2.3,2.3c-1,0.5-2,0.8-3.2,0.8
	s-2.2-0.3-3.2-0.8c-0.9-0.5-1.7-1.3-2.3-2.3c-0.6-1-0.8-2.1-0.8-3.4V93h2.6V104.3z"/>
<path class="st3" d="M215.2,93c0.9,0,1.7,0.1,2.4,0.4c0.7,0.3,1.4,0.6,1.9,1.1c0.5,0.5,0.9,1.1,1.2,1.8c0.3,0.7,0.4,1.5,0.4,2.4
	c0,0.7-0.1,1.4-0.3,2.1c-0.2,0.7-0.5,1.3-0.9,1.9c-0.4,0.6-1,1-1.7,1.4c-0.7,0.3-1.6,0.5-2.6,0.5h-2.4v6.1h-2.6V93H215.2z
	 M215.5,101.7c0.6,0,1-0.1,1.4-0.3c0.4-0.2,0.7-0.4,0.9-0.8c0.2-0.3,0.4-0.6,0.5-1c0.1-0.4,0.1-0.7,0.1-1c0-0.3,0-0.6-0.1-1
	c-0.1-0.4-0.2-0.7-0.5-1c-0.2-0.3-0.5-0.6-0.9-0.8c-0.4-0.2-0.8-0.3-1.4-0.3h-2.4v6.1L215.5,101.7L215.5,101.7z M218.3,103.5
	l4.1,7.1h-3l-4.2-7.1L218.3,103.5z"/>
<path class="st3" d="M234,96.6c-0.6-0.3-1.2-0.6-1.8-0.9c-0.7-0.2-1.3-0.4-1.9-0.4c-0.8,0-1.4,0.2-1.9,0.6c-0.5,0.4-0.7,0.9-0.7,1.6
	c0,0.5,0.2,0.9,0.5,1.3c0.3,0.4,0.7,0.7,1.2,0.9c0.5,0.3,1,0.5,1.6,0.8c0.5,0.2,1,0.4,1.4,0.7c0.5,0.3,0.9,0.6,1.3,1
	c0.4,0.4,0.7,0.9,0.9,1.5c0.2,0.6,0.3,1.3,0.3,2.1c0,0.9-0.2,1.8-0.6,2.5c-0.4,0.8-1,1.4-1.9,1.8s-1.8,0.7-2.9,0.7
	c-0.7,0-1.3-0.1-2-0.2c-0.6-0.2-1.3-0.4-1.8-0.7c-0.6-0.3-1.1-0.6-1.6-1l1.2-2.2c0.4,0.3,0.8,0.6,1.2,0.8c0.5,0.2,0.9,0.4,1.4,0.6
	c0.5,0.1,0.9,0.2,1.4,0.2c0.4,0,0.9-0.1,1.4-0.3c0.5-0.2,0.9-0.4,1.1-0.8c0.3-0.4,0.4-0.9,0.4-1.5c0-0.5-0.1-0.9-0.4-1.3
	c-0.3-0.4-0.6-0.7-1-0.9c-0.4-0.3-0.9-0.5-1.4-0.7c-0.5-0.2-1-0.4-1.5-0.7c-0.5-0.3-1-0.6-1.5-1c-0.4-0.4-0.8-0.8-1.1-1.4
	s-0.4-1.2-0.4-2c0-1,0.2-1.8,0.6-2.5c0.4-0.7,1-1.3,1.7-1.7c0.8-0.4,1.6-0.6,2.6-0.7c1.1,0,2.1,0.2,2.9,0.4c0.8,0.3,1.5,0.7,2.2,1.1
	L234,96.6z"/>
<polygon class="st3" points="238.5,93 249.2,93 249.2,95.7 241.1,95.7 241.1,100.4 248.3,100.4 248.3,103.1 241.1,103.1 
	241.1,107.9 249.5,107.9 249.5,110.6 238.5,110.6 "/>
<line class="st4" x1="112.4" y1="39.7" x2="112.4" y2="117"/>
</svg>
