<?xml version="1.0" encoding="utf-8"?>
<!-- Generator: Adobe Illustrator 23.0.1, SVG Export Plug-In . SVG Version: 6.00 Build 0)  -->
<svg version="1.1" id="Layer_1" xmlns="http://www.w3.org/2000/svg" xmlns:xlink="http://www.w3.org/1999/xlink" x="0px" y="0px"
	 viewBox="0 0 250 150" style="enable-background:new 0 0 250 150;" xml:space="preserve">
<style type="text/css">
	.st0{fill:#2092C0;}
	.st1{fill:#F2B262;}
	.st2{fill:#6ECBD6;}
	.st3{fill:#58595B;}
	.st4{fill:none;stroke:#6D6E71;stroke-width:1.075;stroke-miterlimit:10;}
</style>
<path class="st0" d="M50.51,37.27c-5.3,0-10.37,1.18-14.93,3.29c0.24-1.52,0.71-2.95,1.39-4.25c2.34-4.33,7.01-7.03,12.08-6.51
	c4.4,0.49,8.04,3.29,9.84,7.14c0.22,0.49,0.43,0.98,0.59,1.48C56.62,37.67,53.62,37.27,50.51,37.27"/>
<path class="st0" d="M60.1,43.85c-0.26,2.3-1.04,4.35-2.26,6.1c-1.34,1.99-3.24,3.54-5.42,4.45c-1.81,0.75-3.81,1.1-5.89,0.87
	c-1.93-0.22-3.71-0.87-5.25-1.85c-3.46-2.24-5.74-6.18-5.85-10.55c4.58-2.3,9.69-3.58,15.09-3.58c3.3,0,6.48,0.47,9.51,1.38
	C60.18,41.7,60.2,42.78,60.1,43.85"/>
<path class="st0" d="M76.37,48.31c-2.32-2.4-4.97-4.45-7.84-6.12v-0.02c0.16-1.02,0.28-2.05,0.35-3.09
	c0.18-1.77,0.28-3.56,0.39-5.35c0.14-2.2,1-5.67-0.2-7.68c3.05,5.06,5.09,10.45,6.29,15.96C75.82,44.08,76.15,46.19,76.37,48.31"/>
<path class="st0" d="M50.51,113.25c0.77,0,1.51-0.02,2.26-0.08c-0.02,0.02-0.04,0.06-0.06,0.08c-0.18,0.2-0.35,0.41-0.53,0.61
	c-1.92,2.3-3.93,4.51-6.01,6.69c-0.87,0.89-1.75,1.81-2.63,2.7c-0.59,0.57-1.18,1.14-1.79,1.67c-1.12,1-2.79,1.91-3.4,3.4
	c0.83-2.03,1.61-4.03,2.32-6.02c1.18-3.29,2.2-6.53,3.02-9.72C45.89,113.02,48.17,113.25,50.51,113.25"/>
<path class="st0" d="M76.54,59.08c-0.02,0.26-0.04,0.53-0.06,0.79c-0.02,0.22-0.04,0.45-0.06,0.67c-0.49,5.67-1.67,11.32-3.4,16.79
	c-0.06,0.22-0.14,0.45-0.22,0.67c-0.12,0.33-0.22,0.67-0.35,1v0.04c-0.63,1.87-1.32,3.72-2.06,5.53c-0.1,0.2-0.18,0.41-0.25,0.61
	c-0.65,1.5-1.3,2.97-2,4.43c-1,2.05-2.08,4.07-3.2,6.06c0,0,0,0.02-0.02,0.02c-3.03,5.35-6.52,10.43-10.31,15.23
	c-0.02,0.02-0.02,0.02-0.02,0.04c-1.34,0.16-2.69,0.24-4.07,0.24c-2.16,0-4.28-0.2-6.35-0.61c0.08-0.28,0.16-0.59,0.22-0.87
	c0.9-4.09,1.47-8.07,1.67-11.96c0.02-0.37,0.04-0.73,0.04-1.1v-0.63c0.12-4.86-0.45-9.56-1.77-14.05c-0.08-0.18-0.14-0.35-0.2-0.51
	c-0.08-0.2-0.16-0.41-0.24-0.63c-0.08-0.2-0.18-0.41-0.25-0.61c-1.06-2.72-2.26-5.37-3.64-7.91c-2.16-4.03-4.73-7.79-7.88-11.18
	v-0.02c-1.89-2.05-3.95-3.96-6.25-5.75c2.14,1.67,5.46,2.58,8.27,3.46c0.61,0.18,1.2,0.37,1.73,0.57c6.23,2.2,13.36,3.19,19.71,1.04
	c1.38-0.47,2.65-1.12,3.81-1.91c0.24-0.14,0.45-0.31,0.69-0.47c0.26-0.18,0.49-0.39,0.73-0.59c0.2-0.14,0.37-0.33,0.55-0.49
	c1.63-1.48,3.01-3.29,4.11-5.29c1.1-2.01,1.92-4.23,2.48-6.49c0.08-0.31,0.14-0.63,0.2-0.94c3.18,1.93,6.03,4.39,8.47,7.26
	C76.74,54.04,76.7,56.56,76.54,59.08"/>
<path class="st1" d="M13.81,75.27c0,4.64,0.81,9.07,2.26,13.17c-0.94,0.22-1.89,0.22-2.79,0.02c-2.44-0.51-4.48-2.42-5.13-5.08
	c-0.24-0.94-0.25-1.87-0.12-2.79c0.41-2.64,2.3-4.88,4.97-5.57h0.02c0.26-0.06,0.53-0.12,0.79-0.16V75.27z"/>
<path class="st1" d="M17.92,87.73c-1.38-3.88-2.14-8.09-2.14-12.46v-0.35c2.53,0.45,4.68,2.4,5.32,5.12
	c0.06,0.26,0.12,0.55,0.16,0.81C21.59,83.66,20.26,86.37,17.92,87.73"/>
<path class="st1" d="M32.2,108.16c-0.53,2.36-1.2,4.68-1.96,6.95c-0.12,0.37-0.26,0.75-0.39,1.12c-0.65,1.81-1.39,3.6-2.18,5.37
	c-0.45,1.02-0.92,2.07-1.45,3.05c-0.22,0.39-0.51,0.77-0.73,1.2c-0.22,0.39-0.39,0.77-0.41,1.18c0.02-0.47,0.06-0.94,0.06-1.4
	c0.22-5.55-0.18-10.69-1.45-15.21c-0.86-2.97-2.08-5.67-3.79-8.03c-0.67-0.79-1.36-1.57-2.08-2.3c-0.51-0.53-1.04-1.06-1.59-1.55
	c-2.95-2.72-6.35-4.86-10.41-6.14c1.69,0.53,4.05,0.16,5.8,0.12c0.82,0,1.67-0.06,2.51-0.18c1.1-0.14,2.22-0.39,3.28-0.73
	C20.61,98.57,25.8,104.34,32.2,108.16"/>
<path class="st1" d="M33.32,101.74c-0.02,0.06-0.02,0.12-0.04,0.18c-0.16,1.4-0.37,2.79-0.65,4.17
	c-5.78-3.62-10.45-8.91-13.42-15.21c0.9-0.41,1.77-0.94,2.55-1.57c2.18-1.77,3.28-4.35,3.54-7.08c0.02-0.12,0.04-0.24,0.04-0.35
	c0.08-0.89,0.08-1.79-0.02-2.66c0,0,0-0.04-0.02-0.04c-0.2-2.09-0.79-4.05-1.34-6.04c-0.3-1.08-0.47-2.83-1.28-3.7
	c1.32,1.1,2.51,2.3,3.56,3.58c2.87,3.44,4.81,7.48,5.97,11.81c0.04,0.14,0.08,0.26,0.1,0.41C33.71,90.56,33.95,96.25,33.32,101.74"
	/>
<path class="st2" d="M101.29,95.69c-1.7,2.15-4.39,2.98-6.82,2.33c-0.91-0.22-1.8-0.68-2.57-1.34c-2.86-2.4-3.3-6.76-0.96-9.71
	c0.04-0.05,0.08-0.09,0.13-0.14c1.67-2.03,4.26-2.81,6.63-2.2c0.94,0.22,1.84,0.68,2.62,1.35c0.55,0.46,1.01,1,1.37,1.59h0.01
	C103.24,90.01,103.16,93.3,101.29,95.69"/>
<path class="st2" d="M69.92,105.07c0.29-1.28,0.67-2.56,1.06-3.82c1.3-4.03,3.1-7.97,5.44-11.49c1.53-2.32,3.3-4.43,5.28-6.3
	c0.98-0.94,2.02-1.79,3.12-2.54C83.3,90.94,77.74,99.6,69.92,105.07"/>
<path class="st2" d="M99.73,104.89c-3.1-0.45-6.07-0.33-8.94,0.24c-1.12,0.2-2.24,0.49-3.32,0.83v0.02
	c-1.55,0.49-3.08,1.08-4.58,1.77c-5.19,2.85-9.1,7.87-12.24,14.19c-0.92,1.83-1.79,3.8-2.57,5.86c0.31-0.81,0-1.81-0.04-2.64
	c-0.06-0.75-0.08-1.48-0.08-2.22v-1.2c0-2.34,0.1-4.68,0.33-6.99c0.2-2.18,0.49-4.35,0.92-6.51c0.02-0.12,0.04-0.24,0.08-0.37
	c9.63-5.94,16.4-16.33,17.7-28.38c2.1-1.24,4.38-2.2,6.84-2.81c-1.08,0.43-1.96,1.95-2.67,2.81c-1.34,1.57-2.69,3.09-3.73,4.9
	c-0.24,0.41-0.45,0.81-0.65,1.26c-1.38,2.97-1.75,6.38-0.24,9.43c1.34,2.76,3.69,4.92,6.29,6.46c0.53,0.35,1.06,0.63,1.59,0.92
	C95.99,103.26,97.98,104.63,99.73,104.89"/>
<polygon class="st3" points="127.07,59.38 121.32,48.53 124.38,48.53 128.76,57.19 127.99,57.24 132.32,48.53 135.38,48.53 
	129.55,59.38 129.55,64.62 127.07,64.62 "/>
<path class="st3" d="M135.66,56.59c0-1.11,0.21-2.16,0.62-3.15c0.41-0.99,0.98-1.88,1.71-2.64c0.73-0.77,1.57-1.37,2.52-1.8
	c0.95-0.43,1.99-0.65,3.1-0.65c1.08,0,2.1,0.22,3.07,0.65c0.96,0.43,1.81,1.04,2.55,1.8c0.74,0.77,1.32,1.65,1.73,2.64
	c0.41,0.99,0.62,2.04,0.62,3.15c0,1.13-0.21,2.2-0.62,3.18c-0.41,0.99-0.99,1.86-1.74,2.62c-0.75,0.76-1.6,1.35-2.55,1.77
	c-0.95,0.42-1.98,0.63-3.08,0.63c-1.1,0-2.12-0.21-3.08-0.63c-0.95-0.42-1.79-1-2.52-1.75c-0.73-0.74-1.3-1.61-1.71-2.61
	C135.86,58.82,135.66,57.74,135.66,56.59 M138.22,56.57c0,0.81,0.14,1.56,0.42,2.25c0.28,0.69,0.67,1.3,1.16,1.82
	c0.5,0.52,1.08,0.93,1.74,1.23c0.66,0.29,1.37,0.44,2.13,0.44c0.75,0,1.46-0.15,2.1-0.44c0.65-0.29,1.21-0.7,1.69-1.23
	c0.48-0.52,0.85-1.13,1.13-1.82c0.28-0.69,0.42-1.44,0.42-2.23c0-0.81-0.14-1.56-0.43-2.26c-0.28-0.69-0.67-1.3-1.15-1.83
	c-0.48-0.53-1.05-0.94-1.71-1.24c-0.66-0.29-1.36-0.44-2.12-0.44c-0.76,0-1.46,0.15-2.12,0.45c-0.65,0.3-1.23,0.71-1.72,1.24
	c-0.49,0.52-0.87,1.13-1.14,1.83C138.35,55.05,138.22,55.79,138.22,56.57"/>
<path class="st3" d="M157.12,58.83c0,0.63,0.16,1.21,0.48,1.74c0.32,0.52,0.74,0.95,1.27,1.27c0.53,0.32,1.12,0.49,1.77,0.49
	c0.68,0,1.3-0.16,1.84-0.49c0.54-0.32,0.97-0.75,1.29-1.27c0.32-0.52,0.48-1.1,0.48-1.74v-10.3h2.43v10.35
	c0,1.18-0.27,2.21-0.81,3.11c-0.54,0.89-1.27,1.58-2.19,2.08c-0.92,0.49-1.93,0.74-3.04,0.74c-1.11,0-2.12-0.25-3.03-0.74
	c-0.91-0.49-1.64-1.19-2.18-2.08c-0.54-0.89-0.81-1.93-0.81-3.11V48.52h2.5V58.83z"/>
<polygon class="st3" points="169.6,48.53 180,48.53 180,51 175.99,51 175.99,64.62 173.51,64.62 173.51,51 169.6,51 "/>
<polygon class="st3" points="195.81,48.53 195.81,64.62 193.31,64.62 193.31,57.79 185.66,57.79 185.66,64.62 183.16,64.62 
	183.16,48.53 185.66,48.53 185.66,55.31 193.31,55.31 193.31,48.53 "/>
<rect x="206.92" y="48.53" class="st3" width="2.5" height="16.09"/>
<polygon class="st3" points="227.36,65.19 215.42,53.21 216.17,53.52 216.21,64.62 213.69,64.62 213.69,47.97 213.82,47.97 
	225.54,59.95 224.99,59.78 224.95,48.52 227.42,48.52 227.42,65.19 "/>
<polygon class="st3" points="122.97,71.37 132.41,71.37 132.41,73.84 125.47,73.84 125.47,78.38 131.53,78.38 131.53,80.85 
	125.47,80.85 125.47,87.46 122.97,87.46 "/>
<polygon class="st3" points="135.63,71.37 145.95,71.37 145.95,73.84 138.13,73.84 138.13,78.13 145.1,78.13 145.1,80.61 
	138.13,80.61 138.13,84.99 146.25,84.99 146.25,87.46 135.63,87.46 "/>
<path class="st3" d="M149.69,87.46V71.37h4.42c1.54,0,2.85,0.24,3.94,0.73c1.09,0.49,1.97,1.13,2.63,1.92
	c0.66,0.8,1.15,1.68,1.46,2.66c0.31,0.98,0.47,1.96,0.47,2.95c0,1.21-0.21,2.29-0.62,3.25c-0.41,0.96-0.98,1.78-1.69,2.46
	c-0.71,0.69-1.54,1.21-2.48,1.57c-0.94,0.36-1.92,0.54-2.95,0.54H149.69z M152.19,84.99h2.2c0.84,0,1.61-0.12,2.3-0.36
	c0.69-0.24,1.28-0.6,1.78-1.06c0.5-0.46,0.89-1.04,1.16-1.72c0.28-0.68,0.42-1.48,0.42-2.38c0-1-0.16-1.86-0.48-2.58
	c-0.32-0.71-0.74-1.3-1.26-1.75c-0.52-0.45-1.09-0.78-1.7-0.98c-0.61-0.21-1.22-0.31-1.82-0.31h-2.61V84.99z"/>
<polygon class="st3" points="165.95,71.37 176.26,71.37 176.26,73.84 168.44,73.84 168.44,78.13 175.41,78.13 175.41,80.61 
	168.44,80.61 168.44,84.99 176.56,84.99 176.56,87.46 165.95,87.46 "/>
<path class="st3" d="M184.4,71.37c0.85,0,1.63,0.12,2.34,0.35c0.71,0.24,1.31,0.57,1.82,1.01c0.5,0.43,0.89,0.97,1.16,1.6
	c0.27,0.63,0.41,1.37,0.41,2.21c0,0.63-0.09,1.27-0.28,1.9c-0.19,0.63-0.49,1.21-0.91,1.72c-0.42,0.52-0.97,0.93-1.66,1.24
	c-0.68,0.31-1.52,0.46-2.52,0.46h-2.26v5.59H180V71.37H184.4z M184.72,79.37c0.54,0,1-0.09,1.37-0.27c0.37-0.18,0.66-0.41,0.88-0.69
	c0.21-0.28,0.37-0.58,0.46-0.89c0.09-0.32,0.14-0.61,0.14-0.9c0-0.27-0.04-0.56-0.13-0.87c-0.09-0.32-0.23-0.62-0.44-0.92
	c-0.21-0.29-0.49-0.53-0.84-0.72c-0.36-0.18-0.8-0.28-1.35-0.28h-2.31v5.53H184.72z M187.41,80.94l3.97,6.52h-2.91l-4.04-6.45
	L187.41,80.94z"/>
<path class="st3" d="M192.67,87.46l6.9-16.76h0.15l6.88,16.76h-2.84l-4.87-12.73l1.79-1.22l-5.55,13.95H192.67z M197.03,81.49h5.3
	l0.85,2.17h-6.92L197.03,81.49z"/>
<polygon class="st3" points="209.24,71.37 211.74,71.37 211.74,84.99 219.41,84.99 219.41,87.46 209.24,87.46 "/>
<path class="st3" d="M122.97,110.31V94.21h4.42c1.54,0,2.85,0.24,3.94,0.73c1.09,0.49,1.97,1.13,2.63,1.92
	c0.66,0.8,1.15,1.68,1.46,2.66c0.31,0.98,0.47,1.96,0.47,2.95c0,1.21-0.21,2.29-0.62,3.25c-0.41,0.96-0.98,1.78-1.69,2.46
	s-1.54,1.21-2.48,1.57c-0.94,0.36-1.92,0.54-2.95,0.54H122.97z M125.47,107.83h2.2c0.84,0,1.61-0.12,2.3-0.36
	c0.69-0.24,1.29-0.6,1.78-1.06c0.5-0.46,0.89-1.04,1.16-1.72c0.28-0.68,0.42-1.48,0.42-2.38c0-1-0.16-1.86-0.48-2.58
	c-0.32-0.71-0.74-1.3-1.26-1.75c-0.52-0.45-1.09-0.78-1.7-0.98c-0.61-0.21-1.22-0.31-1.82-0.31h-2.61V107.83z"/>
<rect x="139.22" y="94.21" class="st3" width="2.5" height="16.09"/>
<path class="st3" d="M154.15,97.51c-0.56-0.31-1.15-0.57-1.77-0.78c-0.63-0.21-1.23-0.32-1.79-0.32c-0.77,0-1.37,0.18-1.82,0.53
	c-0.44,0.35-0.66,0.84-0.66,1.46c0,0.44,0.15,0.83,0.46,1.16c0.31,0.33,0.7,0.62,1.19,0.86c0.48,0.24,1,0.48,1.54,0.7
	c0.47,0.18,0.93,0.39,1.39,0.63c0.46,0.24,0.87,0.54,1.25,0.88c0.38,0.35,0.68,0.79,0.9,1.33c0.22,0.54,0.33,1.18,0.33,1.93
	c0,0.86-0.2,1.63-0.61,2.31c-0.41,0.69-1,1.24-1.78,1.66c-0.78,0.42-1.72,0.63-2.8,0.63c-0.65,0-1.29-0.07-1.91-0.22
	c-0.62-0.15-1.21-0.35-1.76-0.6c-0.56-0.25-1.07-0.55-1.54-0.91l1.11-1.99c0.34,0.26,0.73,0.51,1.18,0.73
	c0.44,0.22,0.89,0.4,1.36,0.53c0.46,0.13,0.91,0.2,1.33,0.2c0.43,0,0.87-0.08,1.31-0.23c0.45-0.15,0.82-0.4,1.1-0.74
	c0.28-0.34,0.43-0.8,0.43-1.37c0-0.46-0.13-0.84-0.38-1.16c-0.26-0.32-0.59-0.6-0.99-0.84c-0.41-0.24-0.85-0.46-1.33-0.65
	c-0.47-0.19-0.96-0.41-1.47-0.64c-0.51-0.24-0.99-0.53-1.42-0.87c-0.43-0.35-0.78-0.77-1.04-1.27c-0.26-0.5-0.38-1.11-0.38-1.83
	c0-0.88,0.19-1.65,0.58-2.31c0.38-0.66,0.94-1.18,1.66-1.56c0.72-0.38,1.53-0.59,2.45-0.62c1.1,0,2.03,0.14,2.81,0.41
	c0.78,0.27,1.47,0.61,2.08,1.01L154.15,97.51z"/>
<path class="st3" d="M169.96,109.05c-0.21,0.18-0.55,0.38-1,0.61c-0.46,0.23-0.99,0.43-1.61,0.6c-0.62,0.17-1.31,0.25-2.06,0.23
	c-1.21-0.02-2.3-0.24-3.26-0.67c-0.96-0.43-1.78-1.02-2.46-1.77c-0.68-0.74-1.2-1.6-1.56-2.56c-0.36-0.97-0.54-2-0.54-3.11
	c0-1.19,0.18-2.3,0.55-3.33c0.37-1.02,0.9-1.91,1.58-2.65c0.68-0.74,1.5-1.32,2.43-1.74c0.94-0.41,1.97-0.62,3.1-0.62
	c0.97,0,1.84,0.14,2.62,0.41c0.78,0.27,1.43,0.59,1.95,0.94l-0.98,2.41c-0.4-0.31-0.9-0.6-1.5-0.87c-0.6-0.27-1.27-0.41-2.03-0.41
	c-0.68,0-1.33,0.14-1.95,0.43c-0.62,0.29-1.17,0.69-1.64,1.22c-0.48,0.52-0.85,1.13-1.13,1.83c-0.28,0.7-0.42,1.45-0.42,2.24
	c0,0.83,0.12,1.6,0.37,2.31c0.25,0.72,0.6,1.33,1.07,1.85c0.46,0.52,1.02,0.91,1.66,1.19c0.64,0.28,1.37,0.42,2.18,0.42
	c0.81,0,1.52-0.13,2.12-0.39c0.61-0.26,1.09-0.55,1.46-0.87L169.96,109.05z"/>
<path class="st3" d="M172.31,102.28c0-1.11,0.21-2.16,0.62-3.15c0.41-0.99,0.98-1.88,1.71-2.64c0.73-0.77,1.57-1.37,2.52-1.8
	c0.95-0.43,1.99-0.65,3.1-0.65c1.08,0,2.1,0.22,3.07,0.65c0.96,0.43,1.81,1.04,2.55,1.8c0.74,0.77,1.32,1.65,1.73,2.64
	c0.41,0.99,0.62,2.04,0.62,3.15c0,1.13-0.21,2.2-0.62,3.18c-0.41,0.99-0.99,1.86-1.74,2.62c-0.75,0.76-1.6,1.35-2.55,1.77
	c-0.95,0.42-1.98,0.63-3.08,0.63c-1.1,0-2.12-0.21-3.08-0.63c-0.95-0.42-1.79-1-2.52-1.75c-0.73-0.74-1.3-1.61-1.71-2.61
	C172.52,104.5,172.31,103.43,172.31,102.28 M174.87,102.26c0,0.81,0.14,1.56,0.42,2.25c0.28,0.69,0.67,1.3,1.16,1.82
	c0.5,0.52,1.08,0.93,1.74,1.23c0.66,0.29,1.37,0.44,2.12,0.44c0.75,0,1.46-0.15,2.1-0.44c0.65-0.29,1.21-0.7,1.69-1.23
	c0.48-0.52,0.85-1.13,1.13-1.82c0.28-0.69,0.42-1.44,0.42-2.23c0-0.81-0.14-1.56-0.43-2.26c-0.28-0.69-0.67-1.3-1.15-1.83
	c-0.48-0.53-1.05-0.94-1.71-1.24c-0.66-0.29-1.36-0.44-2.11-0.44c-0.76,0-1.46,0.15-2.12,0.45c-0.65,0.3-1.23,0.71-1.72,1.24
	c-0.49,0.52-0.87,1.13-1.14,1.83C175.01,100.74,174.87,101.48,174.87,102.26"/>
<path class="st3" d="M193.78,104.51c0,0.63,0.16,1.21,0.48,1.74c0.32,0.52,0.74,0.95,1.27,1.27c0.53,0.32,1.12,0.49,1.77,0.49
	c0.68,0,1.3-0.16,1.84-0.49c0.54-0.32,0.97-0.75,1.29-1.27c0.32-0.52,0.48-1.1,0.48-1.74v-10.3h2.43v10.35
	c0,1.18-0.27,2.21-0.81,3.11c-0.54,0.89-1.27,1.58-2.19,2.08c-0.92,0.49-1.93,0.74-3.04,0.74s-2.12-0.25-3.03-0.74
	c-0.91-0.49-1.64-1.19-2.18-2.08c-0.54-0.89-0.81-1.93-0.81-3.11V94.21h2.5V104.51z"/>
<path class="st3" d="M211.77,94.21c0.85,0,1.63,0.12,2.34,0.35c0.71,0.24,1.31,0.57,1.82,1.01c0.5,0.43,0.89,0.97,1.16,1.6
	c0.27,0.63,0.41,1.37,0.41,2.21c0,0.63-0.09,1.27-0.28,1.9c-0.19,0.63-0.49,1.21-0.91,1.72c-0.42,0.52-0.97,0.93-1.66,1.24
	c-0.68,0.31-1.52,0.46-2.52,0.46h-2.26v5.59h-2.5V94.21H211.77z M212.09,102.21c0.54,0,1-0.09,1.37-0.27
	c0.37-0.18,0.66-0.41,0.88-0.69c0.21-0.28,0.37-0.58,0.46-0.89c0.09-0.32,0.14-0.61,0.14-0.9c0-0.27-0.04-0.56-0.13-0.87
	c-0.09-0.32-0.23-0.62-0.44-0.92c-0.21-0.29-0.49-0.53-0.84-0.72c-0.36-0.18-0.8-0.28-1.35-0.28h-2.31v5.53H212.09z M214.78,103.78
	l3.97,6.52h-2.91l-4.04-6.45L214.78,103.78z"/>
<path class="st3" d="M229.84,97.51c-0.56-0.31-1.15-0.57-1.77-0.78c-0.63-0.21-1.23-0.32-1.79-0.32c-0.77,0-1.37,0.18-1.82,0.53
	c-0.44,0.35-0.66,0.84-0.66,1.46c0,0.44,0.15,0.83,0.46,1.16c0.31,0.33,0.7,0.62,1.19,0.86c0.48,0.24,1,0.48,1.54,0.7
	c0.47,0.18,0.93,0.39,1.39,0.63c0.46,0.24,0.87,0.54,1.25,0.88c0.38,0.35,0.68,0.79,0.9,1.33c0.22,0.54,0.33,1.18,0.33,1.93
	c0,0.86-0.2,1.63-0.61,2.31c-0.41,0.69-1,1.24-1.78,1.66c-0.78,0.42-1.72,0.63-2.8,0.63c-0.65,0-1.29-0.07-1.91-0.22
	c-0.62-0.15-1.21-0.35-1.76-0.6c-0.56-0.25-1.07-0.55-1.54-0.91l1.11-1.99c0.34,0.26,0.73,0.51,1.17,0.73
	c0.44,0.22,0.89,0.4,1.36,0.53c0.46,0.13,0.91,0.2,1.33,0.2c0.43,0,0.87-0.08,1.31-0.23c0.45-0.15,0.82-0.4,1.1-0.74
	c0.28-0.34,0.43-0.8,0.43-1.37c0-0.46-0.13-0.84-0.38-1.16c-0.26-0.32-0.59-0.6-0.99-0.84c-0.41-0.24-0.85-0.46-1.33-0.65
	c-0.47-0.19-0.96-0.41-1.47-0.64c-0.51-0.24-0.99-0.53-1.42-0.87c-0.43-0.35-0.78-0.77-1.04-1.27c-0.26-0.5-0.38-1.11-0.38-1.83
	c0-0.88,0.19-1.65,0.58-2.31c0.38-0.66,0.94-1.18,1.66-1.56c0.72-0.38,1.53-0.59,2.45-0.62c1.1,0,2.03,0.14,2.81,0.41
	c0.78,0.27,1.47,0.61,2.08,1.01L229.84,97.51z"/>
<polygon class="st3" points="234.11,94.21 244.43,94.21 244.43,96.69 236.61,96.69 236.61,100.98 243.57,100.98 243.57,103.45 
	236.61,103.45 236.61,107.83 244.73,107.83 244.73,110.31 234.11,110.31 "/>
<line class="st4" x1="113.21" y1="45.48" x2="113.21" y2="116.18"/>
</svg>
